<svg width="512" height="512" version="1.1" viewBox="0 0 512 512" xmlns="http://www.w3.org/2000/svg">
 <g fill-opacity="0" stroke="#fff" stroke-linecap="round" stroke-linejoin="round" stroke-width="35.7">
  <path d="m246.96 41.411h5.8893c119.25 0 92.757 38.774 92.757 86.937 0 48.163-41.37 86.937-92.757 86.937h-5.8893c-51.388 0-92.757-38.774-92.757-86.937 0-48.163 41.37-86.937 92.757-86.937z"/>
  <path d="m68.049 357.85a187.58 96.398 0 0 1 92.504-84.591 187.58 96.398 0 0 1 188.82-0.38736 187.58 96.398 0 0 1 93.815 84.208"/>
  <path transform="translate(1.7448 -13.086)" d="m66.301 369.02-9.9576 115.32"/>
  <path transform="translate(1.7448 -13.086)" d="m441.43 370.76 9.5962 116.9-394.32-1e-5"/>
 </g>
</svg>
